solid OpenSCAD_Model
  facet normal 0 0 1
    outer loop
      vertex -3.67695526427739 14 6.5053823890235805
      vertex 3.67695526427739 -14 6.5053823890235805
      vertex 3.67695526427739 14 6.5053823890235805
    endloop
  endfacet
  facet normal 0 0 1
    outer loop
      vertex -3.67695526427739 14 6.5053823890235805
      vertex -3.67695526427739 -14 6.5053823890235805
      vertex 3.67695526427739 -14 6.5053823890235805
    endloop
  endfacet
  facet normal -0.7071067811865475 0 0.7071067811865476
    outer loop
      vertex -6.5053823890235805 14 3.6769552642773906
      vertex -3.67695526427739 -14 6.5053823890235805
      vertex -3.67695526427739 14 6.5053823890235805
    endloop
  endfacet
  facet normal -0.7071067811865475 0 0.7071067811865476
    outer loop
      vertex -6.5053823890235805 14 3.6769552642773906
      vertex -6.5053823890235805 -14 3.6769552642773906
      vertex -3.67695526427739 -14 6.5053823890235805
    endloop
  endfacet
  facet normal -0.7071067811865476 0 -0.7071067811865476
    outer loop
      vertex -2.8284271247461903 14 4.440892098500626e-16
      vertex -6.5053823890235805 -14 3.6769552642773906
      vertex -6.5053823890235805 14 3.6769552642773906
    endloop
  endfacet
  facet normal -0.7071067811865476 0 -0.7071067811865476
    outer loop
      vertex -2.8284271247461903 14 4.440892098500626e-16
      vertex -2.8284271247461903 -14 4.440892098500626e-16
      vertex -6.5053823890235805 -14 3.6769552642773906
    endloop
  endfacet
  facet normal 0 0 -1
    outer loop
      vertex 2.8284271247461903 14 4.440892098500626e-16
      vertex -2.8284271247461903 -14 4.440892098500626e-16
      vertex -2.8284271247461903 14 4.440892098500626e-16
    endloop
  endfacet
  facet normal 0 0 -1
    outer loop
      vertex 2.8284271247461903 14 4.440892098500626e-16
      vertex 2.8284271247461903 -14 4.440892098500626e-16
      vertex -2.8284271247461903 -14 4.440892098500626e-16
    endloop
  endfacet
  facet normal 0.7071067811865476 0 -0.7071067811865476
    outer loop
      vertex 6.5053823890235805 14 3.6769552642773906
      vertex 2.8284271247461903 -14 4.440892098500626e-16
      vertex 2.8284271247461903 14 4.440892098500626e-16
    endloop
  endfacet
  facet normal 0.7071067811865476 0 -0.7071067811865476
    outer loop
      vertex 6.5053823890235805 14 3.6769552642773906
      vertex 6.5053823890235805 -14 3.6769552642773906
      vertex 2.8284271247461903 -14 4.440892098500626e-16
    endloop
  endfacet
  facet normal 0.7071067811865475 0 0.7071067811865476
    outer loop
      vertex 3.67695526427739 14 6.5053823890235805
      vertex 6.5053823890235805 -14 3.6769552642773906
      vertex 6.5053823890235805 14 3.6769552642773906
    endloop
  endfacet
  facet normal 0.7071067811865475 0 0.7071067811865476
    outer loop
      vertex 3.67695526427739 14 6.5053823890235805
      vertex 3.67695526427739 -14 6.5053823890235805
      vertex 6.5053823890235805 -14 3.6769552642773906
    endloop
  endfacet
  facet normal 0 1 0
    outer loop
      vertex 6.5053823890235805 14 3.6769552642773906
      vertex -3.67695526427739 14 6.5053823890235805
      vertex 3.67695526427739 14 6.5053823890235805
    endloop
  endfacet
  facet normal 0 1 0
    outer loop
      vertex 6.5053823890235805 14 3.6769552642773906
      vertex 2.8284271247461903 14 4.440892098500626e-16
      vertex -3.67695526427739 14 6.5053823890235805
    endloop
  endfacet
  facet normal 0 1 0
    outer loop
      vertex 2.8284271247461903 14 4.440892098500626e-16
      vertex -6.5053823890235805 14 3.6769552642773906
      vertex -3.67695526427739 14 6.5053823890235805
    endloop
  endfacet
  facet normal 0 1 0
    outer loop
      vertex 2.8284271247461903 14 4.440892098500626e-16
      vertex -2.8284271247461903 14 4.440892098500626e-16
      vertex -6.5053823890235805 14 3.6769552642773906
    endloop
  endfacet
  facet normal 0 -1 0
    outer loop
      vertex 3.67695526427739 -14 6.5053823890235805
      vertex -3.67695526427739 -14 6.5053823890235805
      vertex 6.5053823890235805 -14 3.6769552642773906
    endloop
  endfacet
  facet normal 0 -1 0
    outer loop
      vertex -3.67695526427739 -14 6.5053823890235805
      vertex 2.8284271247461903 -14 4.440892098500626e-16
      vertex 6.5053823890235805 -14 3.6769552642773906
    endloop
  endfacet
  facet normal 0 -1 0
    outer loop
      vertex -3.67695526427739 -14 6.5053823890235805
      vertex -6.5053823890235805 -14 3.6769552642773906
      vertex 2.8284271247461903 -14 4.440892098500626e-16
    endloop
  endfacet
  facet normal 0 -1 0
    outer loop
      vertex -6.5053823890235805 -14 3.6769552642773906
      vertex -2.8284271247461903 -14 4.440892098500626e-16
      vertex 2.8284271247461903 -14 4.440892098500626e-16
    endloop
  endfacet
endsolid OpenSCAD_Model
